<svg width="133" height="38" fill="none" xmlns="http://www.w3.org/2000/svg"><rect width="38" height="38" rx="19" fill="#000"/><path d="M13.762 28.788c-1.362 0-2.57-.245-3.623-.734-1.035-.49-1.852-1.259-2.451-2.31-.581-1.069-.872-2.473-.872-4.212v-6.005c0-1.033-.009-2.075-.027-3.125 0-.707-.336-1.15-1.008-1.332l-.6-.136v-.57h7.355v.57l-.763.163c-.69.163-1.035.616-1.035 1.359a171.2 171.2 0 00-.027 3.07v6.522c0 1.758.354 3.026 1.062 3.805.727.779 1.753 1.168 3.078 1.168 1.399 0 2.488-.416 3.269-1.25.799-.851 1.198-2.11 1.198-3.777v-9.457c0-.362-.072-.679-.218-.95-.145-.272-.399-.444-.762-.517l-.654-.136v-.57h4.195v.57l-.763.163c-.345.073-.581.236-.708.49-.127.253-.19.561-.19.923v9.321c0 2.247-.59 3.968-1.771 5.163-1.18 1.196-2.742 1.794-4.685 1.794z" fill="#fff"/><path d="M13.302 28.788l1.152-.586 2.819-1.142c.387-.148.734-.334.863-.575.148-.242.288-.455.288-.864.576-1.151.95-1.237.95-2.296v-4.237c0-1.078-.01-2.146-.028-3.206V12.65c0-.446-.065-.78-.194-1.003-.129-.242-.396-.428-.802-.558l-.442-.14v-.585h7.794c2.21 0 3.814.419 4.808 1.255.995.817 1.493 1.858 1.493 3.122 0 .966-.35 1.84-1.05 2.62-.7.762-1.926 1.31-3.676 1.644 2.027.223 3.491.753 4.394 1.589s1.355 1.858 1.355 3.066a4.65 4.65 0 01-.387 1.812c-.258.595-.7 1.143-1.327 1.644-.608.502-1.437.91-2.487 1.227-1.05.297-2.377.446-3.98.446H13.302zm9.995-9.979h1.3c1.252 0 2.155-.279 2.708-.836.57-.576.857-1.552.857-2.927 0-1.43-.258-2.434-.774-3.01-.516-.576-1.327-.864-2.432-.864h-1.659v7.637zm0 9.17h1.52c1.382 0 2.414-.343 3.096-1.03.681-.688 1.022-1.794 1.022-3.318 0-1.468-.331-2.5-.995-3.094-.645-.613-1.713-.92-3.206-.92h-1.437v8.362z" fill="#fff"/><path d="M24.47 19.616c-.576 0-.288.823-.288.823h3.166l4.03-.576L29.94 19s-2.337-.077-2.642 0c0 0-2.252.616-2.827.616zm30.81 7.076c-.976 0-1.857-.19-2.642-.57a4.508 4.508 0 01-1.88-1.767c-.457-.785-.685-1.78-.685-2.983v-8.208h2.432v8.227c0 1.039.247 1.812.741 2.318.507.507 1.203.76 2.09.76.874 0 1.565-.253 2.071-.76.507-.506.76-1.28.76-2.318v-8.227H60.6v8.208c0 1.204-.24 2.198-.722 2.983a4.573 4.573 0 01-1.938 1.767c-.798.38-1.684.57-2.66.57zm13.122-.228v-13.3h4.92c1.065 0 1.945.178 2.642.532.696.355 1.216.843 1.558 1.463.342.62.513 1.318.513 2.09a4.27 4.27 0 01-.494 2.033c-.33.608-.843 1.102-1.54 1.482-.696.368-1.589.551-2.678.551h-2.49v5.15h-2.431zm2.432-7.125h2.337c.848 0 1.456-.183 1.824-.55.38-.38.57-.894.57-1.54 0-.658-.19-1.171-.57-1.539-.368-.38-.976-.57-1.824-.57h-2.337v4.2zm14.429 7.125v-13.3h5.339c1.38 0 2.432.323 3.154.97.734.633 1.102 1.45 1.102 2.45 0 .836-.228 1.508-.684 2.014-.444.494-.988.83-1.634 1.007.76.152 1.387.532 1.88 1.14a3.17 3.17 0 01.742 2.09c0 1.052-.38 1.92-1.14 2.603-.76.684-1.837 1.026-3.23 1.026h-5.53zm2.432-7.714h2.546c.684 0 1.21-.158 1.577-.475.367-.316.55-.766.55-1.349 0-.557-.183-.994-.55-1.31-.355-.33-.893-.495-1.615-.495h-2.508v3.63zm0 5.738h2.717c.722 0 1.28-.164 1.672-.494.405-.342.608-.817.608-1.425 0-.62-.21-1.108-.627-1.463-.418-.354-.982-.532-1.691-.532h-2.68v3.914zm21.106 2.204c-1.33 0-2.495-.291-3.496-.874a6.294 6.294 0 01-2.337-2.413c-.557-1.038-.836-2.235-.836-3.59 0-1.356.279-2.547.836-3.573a6.257 6.257 0 012.337-2.432c1.001-.582 2.166-.874 3.496-.874 1.317 0 2.476.292 3.477.874a6.08 6.08 0 012.337 2.432c.557 1.026.836 2.217.836 3.572 0 1.356-.279 2.553-.836 3.591a6.113 6.113 0 01-2.337 2.413c-1.001.583-2.16.874-3.477.874zm0-2.185c1.267 0 2.274-.418 3.021-1.254.76-.836 1.14-1.982 1.14-3.439 0-1.456-.38-2.603-1.14-3.439-.747-.836-1.754-1.254-3.021-1.254s-2.28.418-3.04 1.254c-.76.836-1.14 1.983-1.14 3.44 0 1.456.38 2.602 1.14 3.438.76.836 1.773 1.254 3.04 1.254zm12.507 1.957l4.161-6.726-4.218-6.574h2.793l2.983 4.636 2.736-4.636h2.736l-4.161 6.688 4.256 6.612h-2.793l-3.021-4.693-2.736 4.693h-2.736z" fill="#000"/></svg>