<svg width="221" height="56" fill="none" xmlns="http://www.w3.org/2000/svg"><path d="M81.464 39.336c-1.437 0-2.735-.28-3.892-.84-1.157-.579-2.081-1.447-2.772-2.604-.672-1.157-1.008-2.623-1.008-4.396V19.4h3.584v12.124c0 1.53.364 2.67 1.092 3.416.747.747 1.773 1.12 3.08 1.12 1.288 0 2.305-.373 3.052-1.12.747-.747 1.12-1.885 1.12-3.416V19.4h3.584v12.096c0 1.773-.355 3.239-1.064 4.396a6.74 6.74 0 01-2.856 2.604c-1.176.56-2.483.84-3.92.84zM100.803 39V19.4h7.252c1.568 0 2.865.261 3.892.784 1.026.523 1.792 1.241 2.296 2.156.504.915.756 1.941.756 3.08a6.296 6.296 0 01-.728 2.996c-.486.896-1.242 1.624-2.268 2.184-1.027.541-2.343.812-3.948.812h-3.668V39h-3.584zm3.584-10.5h3.444c1.25 0 2.146-.27 2.688-.812.56-.56.84-1.316.84-2.268 0-.97-.28-1.727-.84-2.268-.542-.56-1.438-.84-2.688-.84h-3.444V28.5zM125.65 39V19.4h7.868c2.035 0 3.584.476 4.648 1.428 1.083.933 1.624 2.137 1.624 3.612 0 1.232-.336 2.221-1.008 2.968a4.916 4.916 0 01-2.408 1.484 4.648 4.648 0 012.772 1.68c.728.877 1.092 1.904 1.092 3.08 0 1.55-.56 2.828-1.68 3.836-1.12 1.008-2.706 1.512-4.76 1.512h-8.148zm3.584-11.368h3.752c1.008 0 1.783-.233 2.324-.7.542-.467.812-1.13.812-1.988 0-.821-.27-1.465-.812-1.932-.522-.485-1.316-.728-2.38-.728h-3.696v5.348zm0 8.456h4.004c1.064 0 1.886-.243 2.464-.728.598-.504.896-1.204.896-2.1 0-.915-.308-1.633-.924-2.156-.616-.523-1.446-.784-2.492-.784h-3.948v5.768zm31.104 3.248c-1.96 0-3.677-.43-5.152-1.288-1.456-.859-2.604-2.044-3.444-3.556-.821-1.53-1.232-3.295-1.232-5.292 0-1.997.411-3.752 1.232-5.264.84-1.53 1.988-2.725 3.444-3.584 1.475-.859 3.192-1.288 5.152-1.288 1.942 0 3.65.43 5.124 1.288a8.963 8.963 0 013.444 3.584c.822 1.512 1.232 3.267 1.232 5.264 0 1.997-.41 3.761-1.232 5.292a9.011 9.011 0 01-3.444 3.556c-1.474.859-3.182 1.288-5.124 1.288zm0-3.22c1.867 0 3.351-.616 4.452-1.848 1.12-1.232 1.68-2.921 1.68-5.068s-.56-3.836-1.68-5.068c-1.101-1.232-2.585-1.848-4.452-1.848-1.866 0-3.36.616-4.48 1.848-1.12 1.232-1.68 2.921-1.68 5.068s.56 3.836 1.68 5.068c1.12 1.232 2.614 1.848 4.48 1.848zM178.769 39l6.132-9.912-6.216-9.688h4.116l4.396 6.832 4.032-6.832h4.032l-6.132 9.856L195.401 39h-4.116l-4.452-6.916L182.801 39h-4.032z" fill="#000"/><rect width="56" height="56" rx="28" fill="#000"/><path d="M20.28 42.424c-2.006 0-3.786-.36-5.338-1.081-1.525-.72-2.73-1.856-3.613-3.404-.856-1.575-1.284-3.644-1.284-6.207v-8.85c0-1.522-.014-3.057-.04-4.606 0-1.041-.495-1.695-1.486-1.962l-.883-.2v-.841h10.838v.84l-1.124.241c-1.017.24-1.525.908-1.525 2.002-.027 1.495-.04 3.004-.04 4.526v9.611c0 2.59.522 4.458 1.565 5.606 1.07 1.148 2.583 1.722 4.536 1.722 2.06 0 3.666-.614 4.817-1.842 1.178-1.255 1.766-3.11 1.766-5.566V18.477c0-.535-.107-1.002-.32-1.402-.215-.4-.59-.654-1.125-.761l-.963-.2v-.841h6.181v.84l-1.123.241c-.509.107-.857.347-1.044.72-.188.375-.281.828-.281 1.362v13.736c0 3.31-.87 5.847-2.61 7.61-1.739 1.761-4.04 2.642-6.903 2.642z" fill="#fff"/><path d="M19.603 42.424l1.697-.862 4.154-1.683c.57-.22 1.083-.493 1.273-.849.218-.356.424-.67.424-1.272.849-1.697 1.399-1.824 1.399-3.385V28.13c0-1.589-.014-3.163-.04-4.724V18.64c0-.657-.096-1.15-.286-1.479-.19-.356-.584-.63-1.181-.821l-.652-.206v-.862h11.485c3.259 0 5.62.616 7.087 1.848 1.466 1.205 2.2 2.739 2.2 4.6 0 1.425-.517 2.712-1.548 3.862-1.032 1.123-2.838 1.93-5.417 2.423 2.986.329 5.145 1.11 6.475 2.342s1.996 2.738 1.996 4.518c0 .877-.19 1.767-.57 2.67-.38.877-1.032 1.684-1.955 2.424-.896.739-2.118 1.341-3.666 1.807-1.547.438-3.502.657-5.864.657h-17.01zm14.73-14.705h1.914c1.847 0 3.177-.41 3.992-1.232.841-.85 1.262-2.287 1.262-4.313 0-2.109-.38-3.588-1.14-4.437-.76-.849-1.955-1.273-3.584-1.273h-2.444v11.255zm0 13.514h2.24c2.036 0 3.557-.507 4.562-1.52 1.004-1.013 1.507-2.642 1.507-4.888 0-2.163-.49-3.683-1.467-4.56-.95-.903-2.525-1.355-4.724-1.355h-2.118v12.323z" fill="#fff"/><path d="M36.06 28.908c-.848 0-.424 1.213-.424 1.213h4.667l5.94-.848L44.12 28s-3.444-.113-3.894 0c0 0-3.318.908-4.166.908z" fill="#000"/></svg>